<svg aria-hidden="true" style="position: absolute; width: 0; height: 0; overflow: hidden;" version="1.1" xmlns="http://www.w3.org/2000/svg" xmlns:xlink="http://www.w3.org/1999/xlink">
<defs>
<symbol id="icon-Ellipse" viewBox="0 0 32 32">
<path fill="none" stroke="#fff" style="stroke: var(--color1, #fff)" stroke-linejoin="miter" stroke-linecap="butt" stroke-miterlimit="4" stroke-width="3.5556" d="M30.222 16c0 7.855-6.367 14.222-14.222 14.222s-14.222-6.367-14.222-14.222c0-7.855 6.367-14.222 14.222-14.222s14.222 6.367 14.222 14.222z"></path>
</symbol>
<symbol id="icon-dot" viewBox="0 0 21 32">
<path d="M14.694 10.286c0 2.698-2.2 4.898-4.898 4.898s-4.898-2.2-4.898-4.898c0-2.698 2.2-4.898 4.898-4.898s4.898 2.2 4.898 4.898zM19.592 10.286c0-5.415-4.381-9.796-9.796-9.796s-9.796 4.381-9.796 9.796c0 1.167 0.134 2.372 0.631 3.425l6.983 14.809c0.383 0.842 1.263 1.358 2.181 1.358s1.798-0.517 2.2-1.358l6.964-14.809c0.497-1.052 0.631-2.258 0.631-3.425z"></path>
</symbol>
<symbol id="icon-loop" viewBox="0 0 32 32">
<path d="M13 24c1.445 0 2.875-0.285 4.209-0.837s2.547-1.363 3.569-2.384c1.021-1.021 1.832-2.234 2.384-3.569s0.837-2.765 0.837-4.21-0.285-2.875-0.837-4.21c-0.553-1.335-1.363-2.547-2.384-3.569s-2.234-1.832-3.569-2.384-2.765-0.837-4.21-0.837c-2.917 0-5.715 1.159-7.778 3.222s-3.222 4.861-3.222 7.778c0 2.917 1.159 5.715 3.222 7.778s4.861 3.222 7.778 3.222zM26 13c0 3.448-1.37 6.754-3.808 9.192s-5.745 3.808-9.192 3.808-6.754-1.37-9.192-3.808c-2.438-2.438-3.808-5.745-3.808-9.192s1.37-6.754 3.808-9.192c2.438-2.438 5.745-3.808 9.192-3.808s6.754 1.37 9.192 3.808c2.438 2.438 3.808 5.745 3.808 9.192z"></path>
<path d="M20.688 23.484c0.060 0.080 0.124 0.156 0.196 0.23l7.7 7.7c0.375 0.375 0.884 0.586 1.414 0.586s1.039-0.21 1.415-0.585c0.375-0.375 0.586-0.884 0.586-1.414s-0.21-1.039-0.585-1.415l-7.7-7.7c-0.072-0.072-0.148-0.139-0.23-0.2-0.785 1.070-1.727 2.014-2.796 2.8v-0.002z"></path>
<path d="M13 6c0.265 0 0.52 0.105 0.707 0.293s0.293 0.442 0.293 0.707v5h5c0.265 0 0.52 0.105 0.707 0.293s0.293 0.442 0.293 0.707c0 0.265-0.105 0.52-0.293 0.707s-0.442 0.293-0.707 0.293h-5v5c0 0.265-0.105 0.52-0.293 0.707s-0.442 0.293-0.707 0.293c-0.265 0-0.52-0.105-0.707-0.293s-0.293-0.442-0.293-0.707v-5h-5c-0.265 0-0.52-0.105-0.707-0.293s-0.293-0.442-0.293-0.707c0-0.265 0.105-0.52 0.293-0.707s0.442-0.293 0.707-0.293h5v-5c0-0.265 0.105-0.52 0.293-0.707s0.442-0.293 0.707-0.293z"></path>
</symbol>
<symbol id="icon-twiter" viewBox="0 0 37 32">
<path d="M32.786 8.571c1.429-1.071 2.714-2.357 3.714-3.857-1.286 0.571-2.786 1-4.286 1.143 1.571-0.929 2.714-2.357 3.285-4.143-1.429 0.857-3.071 1.5-4.714 1.857-1.429-1.5-3.357-2.357-5.5-2.357-4.143 0-7.5 3.357-7.5 7.5 0 0.571 0.071 1.143 0.214 1.714-6.214-0.357-11.786-3.357-15.5-7.857-0.643 1.071-1 2.357-1 3.786 0 2.571 1.286 4.857 3.357 6.214-1.214-0.071-2.429-0.357-3.429-0.929v0.071c0 3.643 2.571 6.643 6 7.357-0.571 0.143-1.286 0.286-1.929 0.286-0.5 0-0.929-0.071-1.429-0.143 0.929 3 3.714 5.143 7 5.214-2.571 2-5.786 3.214-9.286 3.214-0.643 0-1.214-0.072-1.786-0.143 3.286 2.143 7.214 3.357 11.5 3.357 13.786 0 21.286-11.357 21.286-21.286 0-0.357 0-0.643 0-1z"></path>
</symbol>
<symbol id="icon-instagram" viewBox="0 0 32 32">
<path d="M17.067 7.267c-4.267 0-7.667 3.467-7.667 7.667 0 4.267 3.4 7.667 7.667 7.667 4.2 0 7.667-3.4 7.667-7.667 0-4.2-3.467-7.667-7.667-7.667zM17.067 19.933c-2.733 0-5-2.2-5-5 0-2.733 2.2-4.933 5-4.933 2.733 0 4.933 2.2 4.933 4.933 0 2.8-2.2 5-4.933 5zM26.8 7c0-1-0.8-1.8-1.8-1.8s-1.8 0.8-1.8 1.8 0.8 1.8 1.8 1.8c1 0 1.8-0.8 1.8-1.8zM31.867 8.8c-0.133-2.4-0.667-4.533-2.4-6.267s-3.867-2.267-6.267-2.4c-2.467-0.133-9.867-0.133-12.333 0-2.4 0.133-4.467 0.667-6.267 2.4-1.733 1.733-2.267 3.867-2.4 6.267-0.133 2.467-0.133 9.867 0 12.333 0.133 2.4 0.667 4.467 2.4 6.267 1.8 1.733 3.867 2.266 6.267 2.4 2.467 0.133 9.867 0.133 12.333 0 2.4-0.134 4.533-0.667 6.267-2.4 1.733-1.8 2.267-3.867 2.4-6.267 0.133-2.467 0.133-9.867 0-12.333zM28.667 23.733c-0.467 1.333-1.533 2.333-2.8 2.867-2 0.8-6.667 0.6-8.8 0.6-2.2 0-6.867 0.2-8.8-0.6-1.333-0.533-2.333-1.533-2.867-2.867-0.8-1.933-0.6-6.6-0.6-8.8 0-2.133-0.2-6.8 0.6-8.8 0.533-1.267 1.533-2.267 2.867-2.8 1.933-0.8 6.6-0.6 8.8-0.6 2.133 0 6.8-0.2 8.8 0.6 1.267 0.467 2.267 1.533 2.8 2.8 0.8 2 0.6 6.667 0.6 8.8 0 2.2 0.2 6.867-0.6 8.8z"></path>
</symbol>
<symbol id="icon-facebook" viewBox="0 0 20 32">
<path d="M17.438 18l0.875-5.75h-5.563v-3.75c0-1.625 0.75-3.125 3.25-3.125h2.563v-4.938c0 0-2.313-0.438-4.5-0.438-4.563 0-7.563 2.813-7.563 7.813v4.438h-5.125v5.75h5.125v14h6.25v-14h4.688z"></path>
</symbol>

<symbol id="icon-arrow" viewBox="0 0 34 32">
<path  d="M19.924 15.289c0.045 0.045 0.067 0.096 0.067 0.154s-0.022 0.109-0.067 0.154l-3.121 3.121c-0.045 0.045-0.096 0.067-0.154 0.067s-0.109-0.022-0.154-0.067l-3.121-3.121c-0.045-0.045-0.067-0.096-0.067-0.154s0.022-0.109 0.067-0.154l0.335-0.335c0.045-0.045 0.096-0.067 0.154-0.067s0.109 0.022 0.154 0.067l2.632 2.632 2.632-2.632c0.045-0.045 0.096-0.067 0.154-0.067s0.109 0.022 0.154 0.067l0.335 0.335z"></path>
<path fill="none" opacity="0.7" stroke="#fff" style="stroke: var(--color1, #fff)" stroke-linejoin="miter" stroke-linecap="butt" stroke-miterlimit="4" stroke-width="0.8" d="M32.436 16c0 8.615-6.999 15.6-15.635 15.6s-15.635-6.985-15.635-15.6c0-8.615 6.999-15.6 15.635-15.6s15.635 6.985 15.635 15.6z"></path>
</symbol>

<symbol id="icon-email" viewBox="0 0 32 32">
<path fill="#7e5aff" style="fill: var(--color1, #7e5aff)" d="M0.035 32l15.965-15.476 15.965 15.476h-31.931zM15.987 0.052l-15.987 11.633v16.635l9.803-9.503-7.537-5.484 13.721-9.984 13.745 9.984-7.54 5.477 9.808 9.509v-16.635l-16.013-11.633z"></path>
</symbol>

<symbol id="icon-location" viewBox="0 0 32 32">
<path fill="#7e5aff" style="fill: var(--color1, #7e5aff)" d="M16 0c-5.597 0-10.667 4.537-10.667 10.136 0 5.597 4.625 12.28 10.667 21.864 6.041-9.584 10.667-16.267 10.667-21.864 0-5.599-5.068-10.136-10.667-10.136zM16 14.667c-2.209 0-4-1.791-4-4s1.791-4 4-4 4 1.791 4 4-1.791 4-4 4z"></path>
</symbol>

<symbol id="icon-phone" viewBox="0 0 32 32">
<path fill="#7e5aff" style="fill: var(--color1, #7e5aff)" d="M26.667 30.161l-4.695-9.060c-0.011 0.005-2.632 1.293-2.752 1.348-2.987 1.448-9.065-10.427-6.145-11.992l2.777-1.368-4.657-9.089-2.808 1.385c-9.603 5.007 5.644 34.643 15.467 30.153 0.161-0.073 2.803-1.372 2.813-1.377z"></path>
</symbol>

<symbol id="icon-time" viewBox="0 0 32 32">
<path fill="#7e5aff" style="fill: var(--color1, #7e5aff)" d="M16 2.667c7.352 0 13.333 5.981 13.333 13.333s-5.981 13.333-13.333 13.333-13.333-5.981-13.333-13.333 5.981-13.333 13.333-13.333zM16 0c-8.836 0-16 7.164-16 16s7.164 16 16 16 16-7.164 16-16-7.164-16-16-16zM23.797 16.612c0.269 0.051 0.269 0.444 0.001 0.496-2.543 0.481-8.060 1.481-8.729 1.481-0.959 0-1.735-0.776-1.735-1.735 0-0.683 1.027-7.263 1.5-9.927 0.045-0.256 0.416-0.241 0.457 0.019l1.313 8.317 7.192 1.348z"></path>
</symbol>

</defs>

</svg>
